<svg width="1283" height="189" viewBox="0 0 1283 189" fill="none" xmlns="http://www.w3.org/2000/svg">
<path d="M486.677 11.0459L486.677 12.5459L486.677 12.5459L486.677 11.0459ZM796.325 11.0459L796.325 12.5459H796.325V11.0459ZM0.43934 9.98524C-0.146447 10.571 -0.146447 11.5208 0.43934 12.1066L9.98528 21.6525C10.5711 22.2383 11.5208 22.2383 12.1066 21.6525C12.6924 21.0667 12.6924 20.117 12.1066 19.5312L3.62132 11.0459L12.1066 2.56062C12.6924 1.97483 12.6924 1.02508 12.1066 0.439297C11.5208 -0.14649 10.5711 -0.14649 9.98528 0.439297L0.43934 9.98524ZM1282.56 12.1066C1283.15 11.5208 1283.15 10.571 1282.56 9.98524L1273.01 0.439297C1272.43 -0.14649 1271.48 -0.14649 1270.89 0.439297C1270.31 1.02508 1270.31 1.97483 1270.89 2.56062L1279.38 11.0459L1270.89 19.5312C1270.31 20.117 1270.31 21.0667 1270.89 21.6525C1271.48 22.2383 1272.43 22.2383 1273.01 21.6525L1282.56 12.1066ZM486.677 11.0459L486.677 12.5459C553.053 12.5459 603.738 21.6934 640.905 35.7588L641.436 34.3559L641.967 32.953C604.374 18.7266 553.311 9.54588 486.677 9.5459L486.677 11.0459ZM641.436 34.3559L640.905 35.7588C703.841 59.5755 727.676 97.2838 724.163 128.476C720.652 159.648 689.682 185.546 640.366 185.546V187.046V188.546C690.621 188.546 723.404 162.022 727.144 128.811C730.882 95.6202 705.468 56.9835 641.967 32.953L641.436 34.3559ZM796.325 11.0459L796.325 9.5459C729.614 9.54588 678.511 18.7284 640.906 32.9529L641.436 34.3559L641.967 35.7589C679.147 21.6953 729.872 12.5459 796.325 12.5459L796.325 11.0459ZM641.436 34.3559L640.906 32.9529C577.482 56.9436 552.105 95.4872 555.863 128.597C559.622 161.726 592.402 188.174 642.636 188.174V186.674V185.174C593.335 185.174 562.372 159.347 558.844 128.259C555.314 97.1524 579.105 59.5369 641.967 35.7589L641.436 34.3559ZM486.677 11.0459V9.5459H1.5V11.0459V12.5459H486.677V11.0459ZM796.325 11.0459V12.5459H1281.5V11.0459V9.5459H796.325V11.0459Z" fill="#1A314A"/>
</svg>
