<svg width="54" height="62" viewBox="0 0 54 62" fill="none" xmlns="http://www.w3.org/2000/svg">
<path d="M25.0976 36.1666C25.0976 38.2002 23.4596 39.8488 21.439 39.8488C19.4185 39.8488 17.7805 38.2002 17.7805 36.1666C17.7805 34.1329 19.4185 32.4843 21.439 32.4843C23.4596 32.4843 25.0976 34.1329 25.0976 36.1666Z" fill="white"/>
<path d="M45.2927 25.8563C45.2927 27.89 43.6547 29.5386 41.6341 29.5386C39.6136 29.5386 37.9756 27.89 37.9756 25.8563C37.9756 23.8227 39.6136 22.1741 41.6341 22.1741C43.6547 22.1741 45.2927 23.8227 45.2927 25.8563Z" fill="white"/>
<path d="M21.439 36.1297C21.439 35.0519 22.3072 34.1782 23.378 34.1782H41.5976C42.6685 34.1782 43.5366 35.0519 43.5366 36.1297C43.5366 37.2076 42.6685 38.0813 41.5976 38.0813H23.378C22.3072 38.0813 21.439 37.2076 21.439 36.1297Z" fill="white"/>
<path d="M39.9927 60.8998C39.5253 59.9301 39.9274 58.7626 40.8909 58.2921L51.1303 53.2923C52.0938 52.8218 53.2538 53.2265 53.7212 54.1962C54.1887 55.166 53.7865 56.3335 52.823 56.8039L42.5836 61.8038C41.6202 62.2743 40.4602 61.8696 39.9927 60.8998Z" fill="white"/>
<path d="M39.9195 1.10018C40.387 0.130452 41.547 -0.27429 42.5105 0.196168L52.7499 5.19592C53.7134 5.66638 54.1155 6.83388 53.6481 7.80361C53.1807 8.77335 52.0207 9.17809 51.0572 8.70763L40.8177 3.70788C39.8542 3.23742 39.4521 2.06992 39.9195 1.10018Z" fill="white"/>
<path d="M41.5976 61.9421C40.5267 61.9421 39.6585 61.0684 39.6585 59.9905V36.1297C39.6585 35.0519 40.5267 34.1782 41.5976 34.1782C42.6685 34.1782 43.5366 35.0519 43.5366 36.1297V59.9905C43.5366 61.0684 42.6685 61.9421 41.5976 61.9421Z" fill="white"/>
<path d="M41.5976 25.1935C40.5267 25.1935 39.6585 24.3198 39.6585 23.242V2.03235C39.6585 0.954524 40.5267 0.0807731 41.5976 0.0807731C42.6685 0.0807731 43.5366 0.954524 43.5366 2.03235V23.242C43.5366 24.3198 42.6685 25.1935 41.5976 25.1935Z" fill="white"/>
<path d="M52.061 56.787C50.9901 56.787 50.1219 55.9133 50.1219 54.8354V7.99755C50.1219 6.91973 50.9901 6.04597 52.061 6.04597C53.1319 6.04597 54 6.91973 54 7.99755V54.8354C54 55.9133 53.1319 56.787 52.061 56.787Z" fill="white"/>
<path d="M28.8847 25.8334C28.8847 23.7998 30.5226 22.1512 32.5432 22.1512C34.5638 22.1512 36.2017 23.7998 36.2017 25.8334C36.2017 27.8671 34.5638 29.5157 32.5432 29.5157C30.5226 29.5157 28.8847 27.8671 28.8847 25.8334Z" fill="white"/>
<path d="M8.78049 36.1666C8.78049 34.1329 10.4185 32.4843 12.439 32.4843C14.4596 32.4843 16.0976 34.1329 16.0976 36.1666C16.0976 38.2002 14.4596 39.8488 12.439 39.8488C10.4185 39.8488 8.78049 38.2002 8.78049 36.1666Z" fill="white"/>
<path d="M32.5432 25.8703C32.5432 26.9481 31.6751 27.8218 30.6042 27.8218H12.3847C11.3138 27.8218 10.4456 26.9481 10.4456 25.8703C10.4456 24.7924 11.3138 23.9187 12.3847 23.9187H30.6042C31.6751 23.9187 32.5432 24.7924 32.5432 25.8703Z" fill="white"/>
<path d="M13.9895 1.10017C14.4569 2.0699 14.0548 3.23741 13.0913 3.70788L2.85194 8.70774C1.88846 9.17821 0.728458 8.77348 0.261015 7.80376C-0.206427 6.83403 0.195698 5.66652 1.15919 5.19605L11.3986 0.196187C12.3621 -0.274282 13.5221 0.130447 13.9895 1.10017Z" fill="white"/>
<path d="M14.0627 60.8998C13.5953 61.8695 12.4353 62.2743 11.4718 61.8038L1.23233 56.8041C0.268832 56.3336 -0.133304 55.1661 0.334127 54.1964C0.801559 53.2267 1.96155 52.8219 2.92505 53.2924L13.1645 58.2921C14.128 58.7626 14.5301 59.9301 14.0627 60.8998Z" fill="white"/>
<path d="M12.3847 0.0578805C13.4556 0.0578805 14.3237 0.931632 14.3237 2.00946V25.8703C14.3237 26.9481 13.4556 27.8218 12.3847 27.8218C11.3138 27.8218 10.4456 26.9481 10.4456 25.8703V2.00946C10.4456 0.931631 11.3138 0.0578805 12.3847 0.0578805Z" fill="white"/>
<path d="M12.4024 36.8294C13.4733 36.8294 14.3415 37.7031 14.3415 38.7809V59.9905C14.3415 61.0684 13.4733 61.9421 12.4024 61.9421C11.3315 61.9421 10.4634 61.0684 10.4634 59.9905V38.7809C10.4634 37.7031 11.3315 36.8294 12.4024 36.8294Z" fill="white"/>
<path d="M1.93902 5.23588C3.00992 5.23588 3.87805 6.10964 3.87805 7.18746V54.0253C3.87805 55.1032 3.00992 55.9769 1.93902 55.9769C0.868131 55.9769 0 55.1032 0 54.0253L0 7.18746C0 6.10964 0.868131 5.23588 1.93902 5.23588Z" fill="white"/>
</svg>
